<svg id="visual" viewBox="0 0 900 600" width="900" height="600" xmlns="http://www.w3.org/2000/svg" xmlns:xlink="http://www.w3.org/1999/xlink" version="1.1"><path d="M0 121L13.7 110C27.3 99 54.7 77 82 71C109.3 65 136.7 75 163.8 84C191 93 218 101 245.2 102C272.3 103 299.7 97 327 98C354.3 99 381.7 107 409 104C436.3 101 463.7 87 491 81C518.3 75 545.7 77 573 76C600.3 75 627.7 71 654.8 76C682 81 709 95 736.2 102C763.3 109 790.7 109 818 101C845.3 93 872.7 77 886.3 69L900 61L900 0L886.3 0C872.7 0 845.3 0 818 0C790.7 0 763.3 0 736.2 0C709 0 682 0 654.8 0C627.7 0 600.3 0 573 0C545.7 0 518.3 0 491 0C463.7 0 436.3 0 409 0C381.7 0 354.3 0 327 0C299.7 0 272.3 0 245.2 0C218 0 191 0 163.8 0C136.7 0 109.3 0 82 0C54.7 0 27.3 0 13.7 0L0 0Z" fill="#69d5c1"></path><path d="M0 199L13.7 184C27.3 169 54.7 139 82 135C109.3 131 136.7 153 163.8 165C191 177 218 179 245.2 174C272.3 169 299.7 157 327 157C354.3 157 381.7 169 409 163C436.3 157 463.7 133 491 129C518.3 125 545.7 141 573 151C600.3 161 627.7 165 654.8 172C682 179 709 189 736.2 186C763.3 183 790.7 167 818 161C845.3 155 872.7 159 886.3 161L900 163L900 59L886.3 67C872.7 75 845.3 91 818 99C790.7 107 763.3 107 736.2 100C709 93 682 79 654.8 74C627.7 69 600.3 73 573 74C545.7 75 518.3 73 491 79C463.7 85 436.3 99 409 102C381.7 105 354.3 97 327 96C299.7 95 272.3 101 245.2 100C218 99 191 91 163.8 82C136.7 73 109.3 63 82 69C54.7 75 27.3 97 13.7 108L0 119Z" fill="#4accb4"></path><path d="M0 385L13.7 356C27.3 327 54.7 269 82 271C109.3 273 136.7 335 163.8 351C191 367 218 337 245.2 312C272.3 287 299.7 267 327 277C354.3 287 381.7 327 409 345C436.3 363 463.7 359 491 361C518.3 363 545.7 371 573 369C600.3 367 627.7 355 654.8 354C682 353 709 363 736.2 366C763.3 369 790.7 365 818 344C845.3 323 872.7 285 886.3 266L900 247L900 161L886.3 159C872.7 157 845.3 153 818 159C790.7 165 763.3 181 736.2 184C709 187 682 177 654.8 170C627.7 163 600.3 159 573 149C545.7 139 518.3 123 491 127C463.7 131 436.3 155 409 161C381.7 167 354.3 155 327 155C299.7 155 272.3 167 245.2 172C218 177 191 175 163.8 163C136.7 151 109.3 129 82 133C54.7 137 27.3 167 13.7 182L0 197Z" fill="#1bc3a7"></path><path d="M0 511L13.7 487C27.3 463 54.7 415 82 404C109.3 393 136.7 419 163.8 417C191 415 218 385 245.2 362C272.3 339 299.7 323 327 343C354.3 363 381.7 419 409 452C436.3 485 463.7 495 491 496C518.3 497 545.7 489 573 488C600.3 487 627.7 493 654.8 483C682 473 709 447 736.2 438C763.3 429 790.7 437 818 434C845.3 431 872.7 417 886.3 410L900 403L900 245L886.3 264C872.7 283 845.3 321 818 342C790.7 363 763.3 367 736.2 364C709 361 682 351 654.8 352C627.7 353 600.3 365 573 367C545.7 369 518.3 361 491 359C463.7 357 436.3 361 409 343C381.7 325 354.3 285 327 275C299.7 265 272.3 285 245.2 310C218 335 191 365 163.8 349C136.7 333 109.3 271 82 269C54.7 267 27.3 325 13.7 354L0 383Z" fill="#17a991"></path><path d="M0 601L13.7 601C27.3 601 54.7 601 82 601C109.3 601 136.7 601 163.8 601C191 601 218 601 245.2 601C272.3 601 299.7 601 327 601C354.3 601 381.7 601 409 601C436.3 601 463.7 601 491 601C518.3 601 545.7 601 573 601C600.3 601 627.7 601 654.8 601C682 601 709 601 736.2 601C763.3 601 790.7 601 818 601C845.3 601 872.7 601 886.3 601L900 601L900 401L886.3 408C872.7 415 845.3 429 818 432C790.7 435 763.3 427 736.2 436C709 445 682 471 654.8 481C627.7 491 600.3 485 573 486C545.7 487 518.3 495 491 494C463.7 493 436.3 483 409 450C381.7 417 354.3 361 327 341C299.7 321 272.3 337 245.2 360C218 383 191 413 163.8 415C136.7 417 109.3 391 82 402C54.7 413 27.3 461 13.7 485L0 509Z" fill="#148f7b"></path></svg>