<svg id="visual" viewBox="0 0 900 600" width="900" height="600" xmlns="http://www.w3.org/2000/svg" xmlns:xlink="http://www.w3.org/1999/xlink" version="1.1"><rect x="0" y="0" width="900" height="600" fill="#1BC2A6"></rect><path d="M0 409L129 417L257 364L386 404L514 374L643 409L771 426L900 397L900 601L771 601L643 601L514 601L386 601L257 601L129 601L0 601Z" fill="#1ab99f"></path><path d="M0 389L129 398L257 446L386 411L514 411L643 444L771 399L900 457L900 601L771 601L643 601L514 601L386 601L257 601L129 601L0 601Z" fill="#18ab93"></path><path d="M0 491L129 443L257 453L386 491L514 484L643 492L771 473L900 477L900 601L771 601L643 601L514 601L386 601L257 601L129 601L0 601Z" fill="#169d87"></path><path d="M0 524L129 469L257 496L386 511L514 496L643 508L771 496L900 515L900 601L771 601L643 601L514 601L386 601L257 601L129 601L0 601Z" fill="#148f7b"></path><path d="M0 505L129 547L257 502L386 546L514 527L643 540L771 502L900 526L900 601L771 601L643 601L514 601L386 601L257 601L129 601L0 601Z" fill="#12826f"></path><path d="M0 544L129 547L257 549L386 553L514 560L643 559L771 545L900 548L900 601L771 601L643 601L514 601L386 601L257 601L129 601L0 601Z" fill="#107564"></path></svg>